<?xml version="1.0" encoding="utf-8"?>
<!-- Generator: Adobe Illustrator 16.0.0, SVG Export Plug-In . SVG Version: 6.00 Build 0)  -->
<!DOCTYPE svg PUBLIC "-//W3C//DTD SVG 1.1//EN" "http://www.w3.org/Graphics/SVG/1.1/DTD/svg11.dtd">
<svg version="1.1" id="Layer_1" xmlns="http://www.w3.org/2000/svg" xmlns:xlink="http://www.w3.org/1999/xlink" x="0px" y="0px"
	 width="595.275px" height="595.275px" viewBox="0 0 595.275 595.275" enable-background="new 0 0 595.275 595.275"
	 xml:space="preserve">
<g>
	<path d="M159.486,381.37c0,3.547,1.778,3.547,1.778,3.547h28.362c8.87,0,8.87,7.095,8.87,8.866l-0.012,1.771h-24.812
		c-3.548,0-17.727,0-17.727,15.074v1.77c0,15.069,14.179,15.069,17.727,15.069h31.912v-31.913v-1.771
		c0-1.771,0-15.954-15.958-15.954h-28.362C161.264,377.829,159.486,377.829,159.486,381.37z M173.673,420.372
		c-3.548,0-10.639,0-10.639-7.975v-1.77c0-7.979,7.091-7.979,10.639-7.979h24.824v17.724H173.673z"/>
	<path d="M331.445,381.37c0,3.547,1.771,3.547,1.771,3.547h28.365c8.864,0,8.864,7.095,8.864,8.866v1.771h-24.817
		c-3.542,0-17.73,0-17.73,15.074v1.77c0,15.069,14.188,15.069,17.73,15.069h31.905v-31.913v-1.771c0-1.771,0-15.954-15.952-15.954
		h-28.365C333.217,377.829,331.445,377.829,331.445,381.37z M345.629,420.372c-3.542,0-10.636,0-10.636-7.975v-1.77
		c0-7.979,7.094-7.979,10.636-7.979h24.817v17.724H345.629z"/>
	<path d="M407.671,427.466h-7.09v-31.913v-1.771c0-1.771,0-15.954,15.954-15.954h10.636c0,0,1.771,0,1.771,3.541
		c0,3.547-1.771,3.547-1.771,3.547h-10.636c-8.864,0-8.864,7.095-8.864,8.866v1.771V427.466z"/>
	<path d="M262.309,462.919c3.548,0,3.548-1.771,3.548-1.771v-33.682h17.724c7.088,0,24.817,0,24.817-21.271v-7.1
		c0-21.265-17.729-21.265-24.817-21.265h-24.824v49.637v33.682C258.756,461.147,258.768,462.919,262.309,462.919z M283.58,384.917
		c7.088,0,17.729,0,17.729,14.177v7.1c0,14.178-10.642,14.178-17.729,14.178h-17.724v-35.455H283.58z"/>
	<path d="M228.626,427.466h7.089V344.14c0,0,0-1.771-3.548-1.771c-3.541,0-3.541,1.771-3.541,1.771V427.466z"/>
	<path d="M446.67,427.466h7.097v-47.867c0,0,0-1.77-3.548-1.77c-3.549,0-3.549,1.77-3.549,1.77V427.466z"/>
	<path d="M455.535,363.641c0,3.552-0.878,4.438-0.878,4.438s-0.891,0.885-4.438,0.885c-3.549,0-4.434-0.885-4.434-0.885
		s-0.885-0.886-0.885-4.438c0-3.547,0.885-4.427,0.885-4.427s0.885-0.891,4.434-0.891c3.548,0,4.438,0.891,4.438,0.891
		S455.535,360.094,455.535,363.641z"/>
</g>
<g>
	<path fill="#8DC63F" d="M475.042,322.805h-7.101c-0.608,0-15.009-0.129-26.02-11.134l-35.447-35.459
		c-6.438-6.437-12.437-6.432-18.873,0l-11.838,11.844l-26.02-26.02c-3.201-3.201-6.373-4.825-9.434-4.825l0,0
		c-3.066,0-6.238,1.624-9.434,4.819l-11.838,11.836l-35.459-35.45l-49.637,49.64l-11.842-11.844c-6.391-6.402-12.465-6.408-18.861,0
		l-35.452,35.454c-11.011,11.011-25.418,11.14-26.026,11.14h-7.091v-3.406h7.091c0.132,0,13.631-0.153,23.617-10.142l35.45-35.449
		c7.722-7.727,15.964-7.727,23.686,0l9.427,9.434l49.637-49.639l35.459,35.451l9.434-9.434c3.854-3.857,7.84-5.816,11.838-5.816l0,0
		c3.998,0,7.979,1.958,11.838,5.816l23.615,23.622l9.434-9.434c7.739-7.762,15.93-7.744,23.68,0l35.449,35.454
		c9.99,9.985,23.48,10.138,23.615,10.138h7.101V322.805z"/>
</g>
<g>
	<path fill="#BEB632" d="M475.042,287.352h-7.101c-0.608,0-15.009-0.13-26.02-11.141l-35.447-35.459
		c-6.444-6.431-12.441-6.417-18.873,0l-11.838,11.844l-26.02-26.023c-6.438-6.432-12.432-6.432-18.867,0l-11.838,11.843
		l-35.459-35.459l-49.63,49.64l-11.849-11.844c-6.432-6.429-12.431-6.425-18.867,0l-35.445,35.459
		c-11.011,11.011-25.418,11.141-26.026,11.141h-7.091v-3.407h7.091c0.132,0,13.631-0.152,23.617-10.137l35.45-35.459
		c7.751-7.739,15.936-7.736,23.68-0.002l9.434,9.436l49.637-49.639l35.459,35.459l9.434-9.433
		c7.727-7.742,15.914-7.757,23.676-0.003l23.615,23.616l9.434-9.434c7.728-7.736,15.918-7.745,23.68-0.002l35.449,35.461
		c9.99,9.985,23.48,10.137,23.615,10.137h7.101V287.352z"/>
</g>
<g>
	<path fill="#D88D2A" d="M475.042,251.892h-7.101c-0.608,0-15.009-0.129-26.02-11.14l-35.447-35.453
		c-6.444-6.438-12.441-6.429-18.873,0.003l-11.838,11.837l-26.02-26.018c-6.401-6.402-12.465-6.398-18.867-0.002l-11.838,11.837
		l-35.459-35.453l-49.637,49.636l-11.842-11.841c-6.432-6.435-12.431-6.432-18.867,0.003l-35.445,35.45
		c-11.011,11.011-25.418,11.14-26.026,11.14h-7.091v-3.406h7.091c0.132,0,13.631-0.153,23.617-10.14l35.45-35.451
		c7.745-7.746,15.936-7.743,23.68-0.003l9.434,9.434l49.637-49.636l35.459,35.454l9.434-9.431
		c7.717-7.715,15.958-7.718,23.676,0.003l23.615,23.61l9.434-9.431c7.728-7.743,15.93-7.751,23.68-0.003l35.449,35.457
		c9.99,9.985,23.48,10.138,23.615,10.138h7.101V251.892z"/>
</g>
<g>
	<path fill="#F15A22" d="M475.042,216.436h-7.101c-0.608,0-15.009-0.129-26.02-11.133l-35.447-35.451
		c-6.438-6.437-12.437-6.434-18.873-0.003l-11.838,11.843l-26.02-26.023c-3.201-3.198-6.373-4.819-9.434-4.822l0,0
		c-3.066,0-6.238,1.621-9.434,4.819l-11.838,11.838l-35.459-35.451l-49.637,49.639l-11.842-11.843
		c-6.391-6.402-12.465-6.408-18.861,0l-35.455,35.454c-11.007,11.004-25.415,11.133-26.022,11.133h-7.091v-3.407h7.091
		c0.132,0,13.631-0.153,23.619-10.137l35.449-35.448c7.722-7.73,15.964-7.724,23.686,0l9.427,9.434l49.637-49.639l35.459,35.451
		l9.434-9.431c3.854-3.857,7.84-5.816,11.838-5.816l0,0c3.998,0,7.979,1.958,11.838,5.816l23.615,23.619l9.434-9.436
		c7.739-7.754,15.93-7.742,23.68,0l35.449,35.45c10.024,10.023,23.48,10.137,23.615,10.137h7.101V216.436z"/>
</g>
</svg>
